<?xml version="1.0" encoding="UTF-8"?>
<svg id="Layer_1" xmlns="http://www.w3.org/2000/svg" version="1.1" viewBox="0 0 116 31">
  <!-- Generator: Adobe Illustrator 29.0.0, SVG Export Plug-In . SVG Version: 2.1.0 Build 186)  -->
  <defs>
    <style>
      .st0 {
        fill: #45575e;
      }

      .st1 {
        fill: #68ebca;
      }

      .st2 {
        fill: #ff685d;
      }

      .st3 {
        fill: #c1002e;
      }
    </style>
  </defs>
  <path class="st2" d="M37.1.4l-3.3,1.9-3.3,1.9c-1.7,1-1.7,3.5,0,4.5h.3c0,.1-3.4,6.1-3.4,6.1l-.4.6-.3.5-.6,1.1c-.3.5-.9.7-1.4.4-.5-.3-.7-.9-.4-1.4l1.3-2.3s0,0,0,0v-.2c1.1-1.7.5-3.9-1.2-4.8-1.7-1-3.9-.4-4.8,1.3l-5.1,8.9-.4.6c-.3.5-.9.6-1.4.4-.5-.3-.6-.9-.4-1.4l1-1.6.7-1.3c1-1.7.4-3.9-1.3-4.8-1.7-1-3.9-.4-4.8,1.3L.5,24.7c-1,1.7-.4,3.9,1.3,4.8,1.7,1,3.9.4,4.8-1.3l1.6-2.7,1.1-1.9h-.1c-.5-.4-.5-1.1,0-1.3l.9-.5.9-.5c.5-.3,1.1,0,1.1.6v2.2c0,.6-.6.9-1.1.6l-.2.4h0c-.7,1.6-.1,3.6,1.5,4.5,1.7,1,3.9.4,4.8-1.3l2.8-4.8,1.2-2.1h0c-.5-.3-.5-1,0-1.3l.9-.5.9-.5c.5-.3,1.1,0,1.1.6v2.2c0,.5-.6.9-1.1.6l-1.4,2.4c-1,1.7-.4,3.9,1.3,4.8,1.7,1,3.9.4,4.8-1.3l9.2-15.9h.3c1.7,1.1,3.9-.1,3.9-2.1V2.6c0-2-2.2-3.2-3.9-2.2Z"/>
  <path class="st1" d="M36.9,18.9c1.1-1.9,3.8-1.9,4.8,0l2,3.4,2,3.4c1.1,1.9-.3,4.2-2.4,4.2h-8c-2.1,0-3.5-2.3-2.4-4.2l2-3.4,2-3.4Z"/>
  <path class="st0" d="M44.3,18.6v-8.3h.2c.9,0,1.5,0,1.6,0,1.3,0,2.2.2,2.8.6.6.4,1,1.1,1,2,0,1.9-1.1,2.9-3.4,2.9s-.3,0-.4,0v2.9h-1.8ZM46.1,14.1c.1,0,.3,0,.4,0,.6,0,1,0,1.3-.3.2-.2.4-.5.4-.9s0-1-1.8-1-.2,0-.2,0v2.2Z"/>
  <path class="st0" d="M45.9,15.5v2.9h-1.4v-7.9c.9,0,1.5,0,1.6,0,1.2,0,2.2.2,2.7.6.6.4.9,1,.9,1.8,0,1.8-1.1,2.7-3.2,2.7s-.4,0-.6,0ZM45.9,11.8v2.5c.2,0,.4,0,.6,0,.6,0,1.1-.1,1.4-.3.3-.2.4-.6.4-1,0-.8-.7-1.2-2-1.2s-.3,0-.4,0Z"/>
  <path class="st0" d="M55.2,18.6l-2.1-3.3c-.2,0-.3,0-.6,0v3.3h-1.9v-8.3h.2c0,0,.4,0,.9,0,.5,0,1,0,1.3,0,2.1,0,3.2.8,3.2,2.5s-.2,1-.5,1.4c-.2.3-.6.6-.9.8l2.4,3.7h-2.1ZM52.6,13.8c.2,0,.3,0,.4,0,.5,0,.9,0,1.2-.2.2-.1.3-.4.3-.8s-.1-.5-.3-.6c-.3-.1-.7-.2-1.3-.2s-.2,0-.3,0v1.8Z"/>
  <path class="st0" d="M55.4,18.4l-2.1-3.2c-.2,0-.5,0-.9,0v3.3h-1.5v-7.9c0,0,.4,0,.9,0,.5,0,1,0,1.3,0,2,0,3,.8,3,2.3s-.1.9-.4,1.3c-.3.4-.6.7-1,.8l2.3,3.5h-1.6ZM52.4,11.8v2.2c.3,0,.5,0,.6,0,.6,0,1,0,1.3-.2.3-.2.4-.5.4-1s-.1-.7-.4-.8-.7-.2-1.4-.2-.3,0-.5,0Z"/>
  <rect class="st0" x="57.5" y="10.4" width="1.8" height="8.3"/>
  <path class="st0" d="M57.7,18.4v-7.9h1.4v7.9h-1.4Z"/>
  <polygon class="st0" points="63.6 18.7 62.2 14.9 61.5 18.6 59.8 18.6 61.4 10.4 62.5 10.4 64 15.2 65.5 10.4 66.6 10.4 68.3 18.6 66.5 18.6 65.8 14.9 64.4 18.7 63.6 18.7"/>
  <path class="st0" d="M68,18.4h-1.4l-.8-4.2-1.6,4.3h-.5l-1.6-4.3-.8,4.2h-1.3l1.6-7.9h.7l1.7,5.3,1.7-5.3h.7l1.6,7.9Z"/>
  <polygon class="st0" points="68.7 18.6 68.7 10.4 74.1 10.4 74.1 12 70.5 12 70.5 13.4 73.1 13.4 73.1 15 70.5 15 70.5 17 74.1 17 74.1 18.6 68.7 18.6"/>
  <path class="st0" d="M70.3,11.8v1.8h2.6v1.2h-2.6v2.4h3.6v1.2h-5v-7.9h5v1.2h-3.6Z"/>
  <path class="st0" d="M89.4,18.5l-.6-1.6h-2.4l-.5,1.6h-2l3.3-8.4h.9l3.3,8.4h-2ZM88.3,15.4l-.7-2.1-.7,2.1h1.3Z"/>
  <path class="st0" d="M89.5,18.3l-.6-1.6h-2.7l-.5,1.6h-1.6l3.1-8h.6l3.2,8h-1.5ZM87.6,12.7l-.9,2.9h1.9l-.9-2.9Z"/>
  <path class="st0" d="M93.5,18.6c-.8,0-1.5-.2-2.1-.6h-.1c0,0,.7-1.7.7-1.7h.2c.5.5,1,.7,1.5.7,1,0,1-.5,1-.7s0-.4-.2-.6c-.2-.2-.6-.5-1.1-.8-.6-.3-1-.6-1.3-.8-.2-.2-.4-.5-.5-.8-.1-.3-.2-.6-.2-1,0-.7.2-1.2.7-1.7.5-.4,1.1-.7,1.9-.7s1.7.2,2.1.6h.1c0,0-.6,1.7-.6,1.7l-.2-.2c-.5-.3-.9-.5-1.4-.5s-.5,0-.6.2c-.1.1-.2.3-.2.5s.2.7,1.4,1.2c.5.3.9.5,1.2.7.3.2.4.5.6.8.1.3.2.7.2,1,0,.7-.3,1.3-.8,1.7-.5.4-1.3.7-2.2.7Z"/>
  <path class="st0" d="M91.5,17.9l.5-1.3c.6.4,1.1.6,1.6.6.8,0,1.2-.3,1.2-.9s0-.5-.3-.8-.6-.5-1.2-.8c-.6-.3-1-.6-1.2-.7-.2-.2-.4-.4-.5-.7-.1-.3-.2-.6-.2-.9,0-.6.2-1.1.7-1.5.4-.4,1-.6,1.7-.6s1.6.2,2,.5l-.4,1.2c-.5-.4-1-.5-1.6-.5s-.6,0-.8.3c-.2.2-.3.4-.3.7,0,.5.5.9,1.5,1.4.5.3.9.5,1.1.7.2.2.4.5.5.8.1.3.2.6.2,1,0,.6-.3,1.2-.8,1.6-.5.4-1.2.6-2,.6s-1.4-.2-2-.6Z"/>
  <path class="st0" d="M99.1,18.6c-.8,0-1.5-.2-2.1-.6h-.1c0,0,.7-1.7.7-1.7h.2c.5.5,1,.7,1.5.7,1,0,1-.5,1-.7s0-.4-.2-.6c-.2-.2-.6-.5-1.1-.8-.6-.3-1-.6-1.3-.8-.2-.2-.4-.5-.5-.8-.1-.3-.2-.6-.2-1,0-.7.2-1.2.7-1.7.5-.4,1.1-.7,1.8-.7s1.7.2,2.1.6h.1c0,0-.6,1.7-.6,1.7l-.2-.2c-.5-.3-.9-.5-1.4-.5s-.5,0-.6.2c-.1.1-.2.3-.2.5s.2.7,1.4,1.2c.5.3.9.5,1.2.7.3.2.4.5.6.8.1.3.2.7.2,1,0,.7-.3,1.3-.8,1.7-.5.4-1.3.7-2.1.7Z"/>
  <path class="st0" d="M97.1,17.9l.5-1.3c.6.4,1.1.6,1.6.6.8,0,1.2-.3,1.2-.9s0-.5-.3-.8-.6-.5-1.2-.8c-.6-.3-1-.6-1.2-.7-.2-.2-.4-.4-.5-.7-.1-.3-.2-.6-.2-.9,0-.6.2-1.1.7-1.5.4-.4,1-.6,1.7-.6s1.6.2,2,.5l-.4,1.2c-.5-.4-1-.5-1.6-.5s-.6,0-.7.3c-.2.2-.3.4-.3.7,0,.5.5.9,1.5,1.4.5.3.9.5,1.1.7.2.2.4.5.5.8.1.3.2.6.2,1,0,.6-.3,1.2-.8,1.6s-1.2.6-2,.6-1.4-.2-2-.6Z"/>
  <polygon class="st0" points="102.9 18.5 102.9 10.2 108.4 10.2 108.4 11.9 104.7 11.9 104.7 13.3 107.3 13.3 107.3 14.9 104.7 14.9 104.7 16.9 108.3 16.9 108.3 18.5 102.9 18.5"/>
  <path class="st0" d="M104.5,11.7v1.8h2.6v1.2h-2.6v2.4h3.6v1.2h-5v-7.9h5v1.2h-3.6Z"/>
  <polygon class="st0" points="111 18.5 111 11.9 108.5 11.9 108.5 10.2 115.4 10.2 115.4 11.9 112.8 11.9 112.8 18.5 111 18.5"/>
  <path class="st0" d="M112.6,11.7v6.6h-1.4v-6.6h-2.5v-1.2h6.5v1.2h-2.6Z"/>
  <g>
    <path class="st3" d="M75.8.4h.4s5.6,3.7,5.6,3.7V.5h1.1v5.8h-.4s-5.6-3.7-5.6-3.7v3.9h-1.1V.4Z"/>
    <path class="st3" d="M79.4,7.4c1,0,1.9.3,2.6,1,.7.7,1.1,1.6,1.1,2.8s-.3,2.3-1,2.9c-.6.7-1.5,1-2.7,1s-2.1-.4-2.7-1.1c-.7-.7-1-1.7-1-3s.3-2.1,1-2.8c.7-.6,1.6-1,2.8-1ZM79.4,9.1c-.8,0-1.5.2-1.9.5s-.7.9-.7,1.5.2,1.4.7,1.8c.4.4,1.1.6,2,.6,1.7,0,2.5-.8,2.5-2.3s-.2-1.2-.7-1.6-1.1-.6-1.8-.6Z"/>
    <path class="st3" d="M75.7,22.5l4.5-4.3h-4.4v-1.5h7.2v.8s-4.3,4.2-4.3,4.2h4.3v1.5h-7.3v-.6Z"/>
    <path class="st3" d="M81.8,26.5h-1.7s0,2.9,0,2.9h-1.1v-2.9s-2.1,0-2.1,0v4h-1.1v-5.6h7.2v5.7h-1.1v-4.1Z"/>
  </g>
  <text/>
</svg>